<svg viewBox="0 0 500 800" width="500" height="800" xmlns="http://www.w3.org/2000/svg">
  <rect width="500" height="800" fill="#000"/>
  <!-- vertical thirds -->
  <line x1="167" y1="0" x2="167" y2="800" stroke="#ffffff" stroke-width="1.2" opacity="0.7"/>
  <line x1="333" y1="0" x2="333" y2="800" stroke="#ffffff" stroke-width="1.2" opacity="0.7"/>
  <!-- horizontal thirds -->
  <line x1="0" y1="267" x2="500" y2="267" stroke="#ffffff" stroke-width="1.2" opacity="0.7"/>
  <line x1="0" y1="533" x2="500" y2="533" stroke="#ffffff" stroke-width="1.2" opacity="0.7"/>
  <!-- intersection circles TL -->
  <circle cx="167" cy="267" r="22" fill="none" stroke="#e03030" stroke-width="2"/>
  <line x1="152" y1="267" x2="182" y2="267" stroke="#e03030" stroke-width="1.2"/>
  <line x1="167" y1="252" x2="167" y2="282" stroke="#e03030" stroke-width="1.2"/>
  <!-- intersection circles TR -->
  <circle cx="333" cy="267" r="22" fill="none" stroke="#e03030" stroke-width="2"/>
  <line x1="318" y1="267" x2="348" y2="267" stroke="#e03030" stroke-width="1.2"/>
  <line x1="333" y1="252" x2="333" y2="282" stroke="#e03030" stroke-width="1.2"/>
  <!-- intersection circles BL -->
  <circle cx="167" cy="533" r="22" fill="none" stroke="#e03030" stroke-width="2"/>
  <line x1="152" y1="533" x2="182" y2="533" stroke="#e03030" stroke-width="1.2"/>
  <line x1="167" y1="518" x2="167" y2="548" stroke="#e03030" stroke-width="1.2"/>
  <!-- intersection circles BR -->
  <circle cx="333" cy="533" r="22" fill="none" stroke="#e03030" stroke-width="2"/>
  <line x1="318" y1="533" x2="348" y2="533" stroke="#e03030" stroke-width="1.2"/>
  <line x1="333" y1="518" x2="333" y2="548" stroke="#e03030" stroke-width="1.2"/>
</svg>
